<?xml version="1.0" standalone="no"?>
<!DOCTYPE svg PUBLIC "-//W3C//DTD SVG 20010904//EN"
 "http://www.w3.org/TR/2001/REC-SVG-20010904/DTD/svg10.dtd">
<svg version="1.0" xmlns="http://www.w3.org/2000/svg"
 width="1365.000000pt" height="1365.000000pt" viewBox="0 0 1365.000000 1365.000000"
 preserveAspectRatio="xMidYMid meet">
<metadata>
Created by potrace 1.11, written by Peter Selinger 2001-2013
</metadata>
<g transform="translate(0.000000,1365.000000) scale(0.100000,-0.100000)"
fill="#000000" stroke="none">
<path d="M6409 13456 c-2 -2 -51 -7 -109 -10 -100 -6 -123 -8 -230 -20 -832
-93 -1542 -303 -2295 -678 -77 -39 -144 -73 -150 -78 -5 -4 -35 -21 -65 -37
-30 -16 -104 -59 -163 -94 -59 -35 -116 -68 -126 -74 -46 -26 -156 -101 -159
-107 -2 -5 -8 -8 -12 -8 -14 0 -200 -131 -339 -239 -68 -53 -135 -105 -150
-116 -23 -17 -97 -78 -145 -120 -299 -261 -508 -472 -762 -765 -123 -142 -319
-403 -444 -589 -94 -141 -216 -335 -230 -368 -5 -11 -14 -24 -19 -28 -6 -3
-11 -15 -11 -25 0 -10 -4 -20 -8 -22 -22 -8 -247 -459 -329 -658 -19 -47 -41
-98 -48 -115 -11 -27 -31 -78 -90 -234 -70 -189 -202 -642 -231 -801 -3 -14
-10 -45 -15 -70 -6 -25 -13 -56 -15 -70 -3 -14 -13 -70 -24 -125 -17 -94 -41
-255 -55 -370 -3 -27 -8 -63 -10 -80 -2 -16 -7 -65 -10 -107 -4 -43 -8 -87
-10 -98 -22 -115 -22 -944 0 -1059 2 -10 6 -57 10 -107 4 -49 9 -96 10 -104 2
-8 6 -46 11 -85 4 -38 8 -72 9 -75 1 -3 5 -30 9 -60 7 -49 26 -169 41 -255 3
-16 19 -95 36 -175 172 -815 509 -1613 968 -2293 47 -70 91 -136 96 -145 6 -9
12 -19 15 -22 3 -3 30 -39 60 -80 49 -68 176 -231 221 -284 445 -530 881 -929
1410 -1288 133 -90 367 -235 464 -288 33 -18 65 -36 70 -40 13 -10 332 -170
405 -203 146 -67 187 -84 345 -147 386 -154 748 -259 1180 -344 66 -13 138
-27 160 -30 22 -3 85 -12 140 -20 55 -8 123 -18 150 -21 28 -3 66 -8 85 -11
43 -5 109 -11 220 -19 47 -3 108 -8 135 -11 63 -8 626 -8 720 0 39 3 108 8
155 12 47 3 103 8 125 10 123 11 162 15 185 19 14 2 49 7 79 10 30 4 61 8 70
10 9 1 52 8 96 15 44 7 134 23 200 36 66 14 134 27 150 30 178 32 736 194 890
259 17 7 91 36 165 65 74 29 162 65 195 80 33 15 83 37 110 50 61 27 345 169
400 200 43 23 257 148 315 183 90 53 377 249 485 330 102 76 319 249 335 267
3 3 41 36 85 75 129 112 363 339 479 465 58 64 241 274 281 325 22 28 43 52
46 55 3 3 61 79 128 170 66 91 125 170 131 177 5 7 10 16 10 22 0 5 4 11 9 13
8 3 158 232 224 343 373 627 613 1228 786 1975 11 47 23 101 26 120 3 19 8 46
10 60 11 55 16 77 25 135 6 33 13 74 15 90 3 17 9 62 15 100 5 39 12 93 16
120 3 28 7 61 9 75 2 14 7 61 11 105 4 44 8 94 10 110 23 238 22 821 -1 1055
-3 25 -7 72 -10 105 -3 33 -7 78 -10 100 -3 22 -7 58 -9 80 -27 244 -107 654
-180 920 -191 701 -483 1345 -879 1940 -118 177 -391 545 -431 580 -6 6 -21
23 -33 38 -91 118 -436 475 -602 623 -30 27 -63 56 -72 66 -114 110 -488 398
-709 545 -127 84 -434 273 -444 273 -2 0 -43 22 -90 50 -47 27 -86 46 -86 43
0 -3 -6 -1 -13 5 -38 32 -361 181 -588 272 -307 123 -811 279 -1019 315 -19 3
-64 12 -100 20 -154 34 -414 76 -555 91 -27 2 -63 7 -80 9 -16 2 -70 7 -120
10 -49 4 -101 9 -115 12 -28 6 -835 15 -841 9z"/>
</g>
</svg>
